<?xml version="1.0" standalone="no"?>
<!DOCTYPE svg PUBLIC "-//W3C//DTD SVG 20010904//EN"
 "http://www.w3.org/TR/2001/REC-SVG-20010904/DTD/svg10.dtd">
<svg version="1.0" xmlns="http://www.w3.org/2000/svg"
 width="354.000000pt" height="360.000000pt" viewBox="0 0 354.000000 360.000000"
 preserveAspectRatio="xMidYMid meet">

<g transform="translate(0.000000,360.000000) scale(0.100000,-0.100000)"
fill="#000000" stroke="none">
<path d="M1130 3196 c-55 -18 -80 -65 -80 -152 l0 -74 -93 0 c-175 0 -299 -50
-418 -169 -80 -80 -123 -150 -156 -257 -17 -55 -18 -111 -18 -849 0 -878 -3
-842 69 -980 51 -100 137 -187 233 -238 119 -62 152 -67 481 -67 l294 0 34 34
c39 39 45 86 19 136 -27 53 -37 55 -355 60 l-295 5 -63 34 c-99 54 -161 138
-182 250 -6 32 -10 267 -10 582 l0 529 530 0 c582 0 574 -1 605 60 30 57 10
127 -45 155 -25 13 -105 15 -561 15 l-532 0 6 98 c5 106 23 162 71 230 40 57
132 118 199 132 37 7 316 10 907 8 l855 -3 47 -22 c69 -31 112 -67 152 -126
52 -77 66 -145 66 -324 0 -152 0 -153 28 -183 54 -61 158 -47 188 25 20 49 19
301 -2 403 -24 115 -80 217 -169 300 -118 113 -243 162 -412 162 l-93 0 0 74
c0 60 -4 79 -23 107 -43 64 -126 69 -179 9 -26 -28 -28 -37 -28 -110 l0 -80
-460 0 -460 0 0 80 c0 73 -2 82 -27 110 -35 38 -78 51 -123 36z"/>
<path d="M2144 2015 c-238 -52 -452 -227 -558 -457 -47 -100 -66 -183 -72
-302 -12 -230 64 -432 225 -600 158 -164 348 -246 570 -246 235 1 400 69 566
235 138 139 210 284 235 479 55 413 -238 820 -644 895 -79 15 -246 13 -322 -4z
m353 -245 c267 -92 433 -379 379 -655 -24 -121 -75 -215 -165 -306 -262 -262
-676 -215 -880 101 -209 323 -35 769 340 870 95 26 234 22 326 -10z"/>
<path d="M2265 1561 c-11 -5 -29 -19 -40 -31 -18 -20 -20 -39 -23 -187 l-3
-165 93 -94 c90 -89 96 -94 137 -94 36 0 49 6 77 34 29 29 34 41 34 81 0 43
-4 51 -55 104 l-55 58 0 107 c0 120 -12 156 -60 181 -31 16 -73 19 -105 6z"/>
</g>
</svg>
