<?xml version="1.0" standalone="no"?>
<!DOCTYPE svg PUBLIC "-//W3C//DTD SVG 20010904//EN"
 "http://www.w3.org/TR/2001/REC-SVG-20010904/DTD/svg10.dtd">
<svg version="1.0" xmlns="http://www.w3.org/2000/svg"
 width="355.000000pt" height="360.000000pt" viewBox="0 0 355.000000 360.000000"
 preserveAspectRatio="xMidYMid meet">

<g transform="translate(0.000000,360.000000) scale(0.100000,-0.100000)"
fill="#000000" stroke="none">
<path d="M865 3187 c-69 -23 -103 -45 -210 -138 -150 -130 -226 -252 -262
-424 -19 -92 -18 -278 2 -384 133 -696 902 -1528 1633 -1767 139 -46 251 -64
391 -64 261 0 435 83 613 290 94 110 126 173 135 263 7 77 -21 179 -65 239
-41 56 -376 313 -442 339 -75 30 -185 30 -260 1 -33 -14 -101 -59 -173 -117
l-117 -95 -54 24 c-288 127 -559 390 -706 683 l-51 102 99 124 c114 143 136
193 135 302 -1 109 -25 156 -183 360 -144 184 -172 212 -250 247 -57 25 -180
33 -235 15z m142 -233 c30 -12 64 -49 161 -175 125 -162 142 -197 128 -253 -3
-13 -56 -87 -117 -163 -114 -142 -129 -167 -129 -209 0 -32 76 -204 136 -306
183 -312 475 -574 803 -720 66 -29 110 -43 142 -43 43 0 53 6 185 111 161 129
170 134 222 134 35 0 57 -14 203 -127 90 -69 167 -131 171 -137 18 -25 26 -78
18 -107 -9 -31 -71 -109 -147 -186 -50 -51 -140 -98 -225 -118 -343 -81 -874
170 -1333 630 -391 391 -615 810 -615 1147 0 153 43 284 122 370 50 55 149
139 183 154 39 17 47 17 92 -2z"/>
<path d="M1943 3181 c-41 -26 -53 -49 -53 -101 0 -34 6 -48 33 -74 30 -31 38
-33 122 -40 250 -19 466 -117 626 -283 159 -164 246 -364 265 -608 6 -85 9
-92 41 -124 31 -31 37 -33 85 -29 57 6 92 35 105 86 9 39 -12 233 -37 325
-128 483 -557 834 -1055 863 -89 5 -103 3 -132 -15z"/>
<path d="M1925 2697 c-37 -37 -45 -79 -25 -131 13 -36 67 -66 115 -66 52 0
147 -25 204 -53 136 -67 251 -250 251 -400 0 -76 50 -127 126 -127 28 0 44 8
70 34 32 32 34 38 34 103 0 162 -76 339 -200 464 -127 129 -276 197 -447 207
l-92 5 -36 -36z"/>
</g>
</svg>
