<?xml version="1.0" standalone="no"?>
<!DOCTYPE svg PUBLIC "-//W3C//DTD SVG 20010904//EN"
 "http://www.w3.org/TR/2001/REC-SVG-20010904/DTD/svg10.dtd">
<svg version="1.0" xmlns="http://www.w3.org/2000/svg"
 width="354.000000pt" height="360.000000pt" viewBox="0 0 354.000000 360.000000"
 preserveAspectRatio="xMidYMid meet">

<g transform="translate(0.000000,360.000000) scale(0.100000,-0.100000)"
fill="#000000" stroke="none">
<path d="M701 3208 c-13 -7 -34 -26 -45 -41 -19 -26 -21 -44 -24 -220 -5 -264
11 -335 95 -428 47 -52 111 -89 182 -105 79 -19 420 -19 464 0 52 22 72 52 72
106 0 34 -6 55 -20 70 -39 44 -73 50 -266 50 l-182 0 24 26 c42 46 171 138
258 183 505 262 1127 123 1467 -328 156 -209 234 -442 234 -706 0 -328 -130
-624 -372 -850 -427 -397 -1085 -415 -1531 -44 -255 213 -395 493 -422 844 -4
44 -11 92 -17 107 -22 59 -112 81 -165 42 -48 -36 -55 -59 -49 -172 11 -200
66 -398 158 -572 68 -128 126 -208 233 -319 202 -210 438 -341 728 -403 136
-29 397 -31 532 -5 207 42 409 129 574 251 94 68 247 223 313 316 107 152 188
339 230 533 31 146 31 408 0 554 -63 290 -193 526 -403 728 -201 193 -418 308
-692 367 -136 29 -398 31 -531 5 -235 -47 -456 -151 -643 -303 l-33 -27 0 122
c0 128 -10 171 -48 204 -26 24 -90 32 -121 15z"/>
<path d="M1751 2508 c-13 -7 -34 -26 -45 -41 -20 -27 -21 -42 -24 -335 -2
-191 1 -320 7 -342 8 -26 63 -87 209 -232 195 -195 199 -198 241 -198 81 0
121 40 121 122 0 41 -5 47 -170 213 l-170 171 0 272 c0 288 -4 316 -48 355
-26 24 -90 32 -121 15z"/>
</g>
</svg>
