<?xml version="1.0" standalone="no"?>
<!DOCTYPE svg PUBLIC "-//W3C//DTD SVG 20010904//EN"
 "http://www.w3.org/TR/2001/REC-SVG-20010904/DTD/svg10.dtd">
<svg version="1.0" xmlns="http://www.w3.org/2000/svg"
 width="355.000000pt" height="360.000000pt" viewBox="0 0 355.000000 360.000000"
 preserveAspectRatio="xMidYMid meet">

<g transform="translate(0.000000,360.000000) scale(0.100000,-0.100000)"
fill="#000000" stroke="none">
<path d="M980 3182 c-225 -59 -374 -282 -341 -512 27 -183 164 -340 336 -385
172 -44 349 6 466 133 169 185 165 463 -11 642 -117 120 -285 165 -450 122z
m184 -226 c67 -20 114 -61 142 -120 42 -89 28 -194 -34 -260 -38 -40 -118 -76
-172 -76 -54 0 -134 36 -172 76 -113 121 -55 329 104 379 56 18 75 18 132 1z"/>
<path d="M2380 3182 c-225 -59 -374 -282 -341 -512 27 -183 164 -340 336 -385
172 -44 349 6 466 133 169 185 165 463 -11 642 -117 120 -285 165 -450 122z
m184 -226 c67 -20 114 -61 142 -120 42 -89 28 -194 -34 -260 -38 -40 -118 -76
-172 -76 -54 0 -134 36 -172 76 -113 121 -55 329 104 379 56 18 75 18 132 1z"/>
<path d="M1704 2255 c-239 -52 -404 -290 -364 -526 43 -252 285 -430 531 -389
252 43 430 285 389 531 -32 191 -179 344 -369 385 -80 17 -107 16 -187 -1z
m184 -241 c85 -35 142 -120 142 -214 0 -129 -101 -230 -230 -230 -202 0 -306
242 -167 389 64 67 171 90 255 55z"/>
<path d="M955 2134 c-38 -8 -113 -35 -165 -61 -79 -38 -109 -60 -181 -132 -72
-72 -94 -102 -132 -181 -75 -153 -98 -329 -51 -381 42 -48 107 -57 161 -22 28
19 33 32 49 138 36 232 187 384 419 419 108 16 119 20 141 54 37 56 14 138
-47 169 -31 16 -106 15 -194 -3z"/>
<path d="M2451 2137 c-61 -31 -84 -113 -47 -169 22 -34 32 -38 141 -54 232
-36 384 -187 419 -419 16 -106 21 -119 49 -138 54 -35 119 -26 161 22 47 52
24 228 -51 381 -38 79 -60 109 -132 181 -72 72 -102 94 -181 132 -135 66 -299
95 -359 64z"/>
<path d="M1705 1209 c-164 -25 -280 -84 -401 -205 -67 -66 -90 -97 -127 -175
-69 -140 -96 -303 -62 -369 28 -54 98 -75 154 -46 45 24 54 42 68 144 35 255
218 422 463 422 245 0 428 -167 463 -422 14 -102 23 -120 68 -144 56 -29 126
-8 154 46 53 103 -34 380 -165 523 -159 173 -395 260 -615 226z"/>
</g>
</svg>
