<?xml version="1.0" standalone="no"?>
<!DOCTYPE svg PUBLIC "-//W3C//DTD SVG 20010904//EN"
 "http://www.w3.org/TR/2001/REC-SVG-20010904/DTD/svg10.dtd">
<svg version="1.0" xmlns="http://www.w3.org/2000/svg"
 width="352.000000pt" height="360.000000pt" viewBox="0 0 352.000000 360.000000"
 preserveAspectRatio="xMidYMid meet">

<g transform="translate(0.000000,360.000000) scale(0.100000,-0.100000)"
fill="#000000" stroke="none">
<path d="M662 3209 c-109 -18 -208 -94 -260 -199 l-27 -55 -3 -277 -3 -278
115 0 116 0 0 235 c0 257 5 284 55 323 27 21 36 22 282 22 l254 0 -3 118 -3
117 -235 1 c-129 1 -259 -2 -288 -7z"/>
<path d="M2357 3213 c-4 -3 -7 -57 -7 -120 l0 -113 251 0 c218 0 255 -2 280
-17 52 -31 59 -68 59 -328 l0 -235 115 0 115 0 0 254 c0 222 -2 262 -19 315
-41 131 -143 218 -282 241 -70 11 -502 14 -512 3z"/>
<path d="M370 1815 l0 -115 1400 0 1400 0 0 115 0 115 -1400 0 -1400 0 0 -115z"/>
<path d="M370 976 c0 -320 8 -355 103 -451 99 -100 119 -105 447 -105 l270 0
0 115 0 115 -254 0 c-352 0 -336 -16 -336 345 l0 235 -115 0 -115 0 0 -254z"/>
<path d="M2940 995 c0 -257 -5 -284 -55 -323 -27 -21 -36 -22 -281 -22 l-254
0 0 -115 0 -115 270 0 c328 0 348 5 447 105 95 96 103 131 103 451 l0 254
-115 0 -115 0 0 -235z"/>
</g>
</svg>
